<svg width="24" height="24" viewBox="0 0 24 24" fill="none" xmlns="http://www.w3.org/2000/svg">
<path d="M8.17276 8.53853C8.96443 8.31235 9.81137 8.3761 10.56 8.71875C11.0165 8.92768 11.2171 9.46702 11.0084 9.92347C10.7994 10.3799 10.2601 10.5806 9.80362 10.3718C9.449 10.2095 9.04758 10.1794 8.67258 10.2865C8.29764 10.3937 7.97347 10.6317 7.75816 10.9568C7.55569 11.2671 7.44745 11.6295 7.44745 12C7.44745 12.3718 7.55607 12.7357 7.75995 13.0467C7.76447 13.0536 7.76892 13.061 7.77326 13.068C7.97564 13.396 8.294 13.6368 8.66459 13.7427C9.03512 13.8485 9.43194 13.8122 9.77699 13.6406C10.2265 13.4171 10.7724 13.6004 10.9959 14.0499C11.2194 14.4995 11.0362 15.0453 10.5866 15.2688C9.83544 15.6423 8.97144 15.7213 8.16477 15.4907C7.35816 15.2603 6.66632 14.7364 6.22585 14.0224L6.22763 14.0215C5.83834 13.4189 5.62926 12.7177 5.62926 12C5.62926 11.2738 5.84184 10.5636 6.24005 9.95632L6.24184 9.95277C6.69635 9.26639 7.38126 8.76482 8.17276 8.53853Z" fill="#1D2735"/>
<path d="M14.5364 8.53853C15.3281 8.31235 16.175 8.3761 16.9236 8.71875C17.3801 8.92768 17.5807 9.46702 17.372 9.92347C17.163 10.3799 16.6237 10.5806 16.1673 10.3718C15.8126 10.2095 15.4112 10.1794 15.0362 10.2865C14.6613 10.3937 14.3371 10.6317 14.1218 10.9568C13.9194 11.2671 13.8111 11.6295 13.8111 12C13.8111 12.3718 13.9197 12.7357 14.1235 13.0467C14.1281 13.0536 14.1325 13.061 14.1369 13.068C14.3393 13.396 14.6576 13.6368 15.0283 13.7427C15.3987 13.8485 15.7955 13.8122 16.1406 13.6406C16.5902 13.4171 17.136 13.6004 17.3595 14.0499C17.583 14.4995 17.3998 15.0453 16.9503 15.2688C16.1991 15.6423 15.3351 15.7213 14.5284 15.4907C13.7218 15.2603 13.03 14.7364 12.5895 14.0224L12.5913 14.0215C12.202 13.4189 11.9929 12.7177 11.9929 12C11.9929 11.2738 12.2055 10.5636 12.6037 9.95632L12.6055 9.95277C13.06 9.26639 13.7449 8.76482 14.5364 8.53853Z" fill="#1D2735"/>
<path fill-rule="evenodd" clip-rule="evenodd" d="M12 2C17.5228 2 22 6.47715 22 12C22 17.5228 17.5228 22 12 22C6.47715 22 2 17.5228 2 12C2 6.47715 6.47715 2 12 2ZM12 3.81818C7.48131 3.81818 3.81818 7.48131 3.81818 12C3.81818 16.5187 7.48131 20.1818 12 20.1818C16.5187 20.1818 20.1818 16.5187 20.1818 12C20.1818 7.48131 16.5187 3.81818 12 3.81818Z" fill="#1D2735"/>
</svg>
