<svg width="24" height="24" viewBox="0 0 24 24" fill="none" xmlns="http://www.w3.org/2000/svg">
<path fill-rule="evenodd" clip-rule="evenodd" d="M1.29302 1.29297C1.68354 0.902497 2.31657 0.902462 2.70708 1.29297L22.7071 21.293C23.0975 21.6835 23.0975 22.3165 22.7071 22.707C22.3166 23.0975 21.6835 23.0975 21.293 22.707L15.5723 16.9863C14.0433 16.9015 12.7571 16.38 11.629 15.9287C10.3609 15.4215 9.28067 15 8.00005 15C6.91446 15 5.86232 15.3532 5.00005 16V22C5.00005 22.5522 4.55226 22.9999 4.00005 23C3.44776 23 3.00005 22.5523 3.00005 22V4.41406L1.29302 2.70703C0.902491 2.31651 0.902491 1.68349 1.29302 1.29297ZM5.00005 13.6768C5.93044 13.2355 6.95392 13 8.00005 13C9.71912 13 11.1394 13.5786 12.3711 14.0713C12.5297 14.1347 12.6865 14.1938 12.8399 14.2539L5.00005 6.41406V13.6768Z" fill="#1D2735"/>
<path d="M8.00005 1C9.72288 1.00009 11.1393 1.57904 12.3106 2.08105C13.5447 2.60999 14.417 2.99993 15.3331 3C16.5521 2.99995 17.3289 2.75324 17.7999 2.40039L17.9141 2.32031C18.1857 2.14474 18.4969 2.03703 18.8204 2.00781C19.1901 1.97455 19.5625 2.04496 19.8946 2.21094C20.2265 2.37698 20.506 2.63257 20.7012 2.94824C20.8964 3.26415 21 3.62865 21 4V14.3467C21 14.8988 20.5521 15.3465 20 15.3467C19.4479 15.3465 19 14.8989 19 14.3467V4C18.0484 4.71346 16.7798 4.99995 15.3331 5C13.9165 4.99993 12.6212 4.38985 11.5225 3.91895C10.361 3.42115 9.27662 3.00009 8.00005 3H7.6563C7.10401 3 6.6563 2.55228 6.6563 2C6.6563 1.44772 7.10401 1 7.6563 1H8.00005Z" fill="#1D2735"/>
</svg>
