<svg width="24" height="24" viewBox="0 0 24 24" fill="none" xmlns="http://www.w3.org/2000/svg">
<path d="M5.29297 15.293C5.68349 14.9024 6.31651 14.9024 6.70703 15.293L8.70703 17.293C9.09756 17.6835 9.09756 18.3165 8.70703 18.707C8.31651 19.0976 7.68349 19.0976 7.29297 18.707L5.29297 16.707C4.90245 16.3165 4.90244 15.6835 5.29297 15.293Z" fill="#1D2735"/>
<path fill-rule="evenodd" clip-rule="evenodd" d="M19.4004 1.01367C19.8584 1.01376 20.3005 1.17126 20.6543 1.45605L20.7998 1.58496L22.4141 3.19922C22.7804 3.57297 22.9862 4.07627 22.9863 4.59961C22.9863 5.12296 22.7803 5.62619 22.4141 6L21.293 7.12109C20.7305 7.68346 19.9672 7.99982 19.1719 8H17.8281C17.5961 8.00008 17.3722 8.08071 17.1943 8.22656L17.1211 8.29297L15.8877 9.52539C16.605 10.5341 17 11.7459 17 13C16.9998 13.7905 16.7652 14.5634 16.3262 15.2207C15.8872 15.878 15.2633 16.3904 14.5332 16.6934L14.5322 16.6943L13.6143 17.0723C13.432 17.1484 13.2764 17.2779 13.167 17.4424C13.0576 17.607 12.9996 17.8004 13 17.998V18C13 19.3261 12.4728 20.5975 11.5352 21.5352C10.5975 22.4728 9.32608 23 8 23C6.14349 23 4.36256 22.263 3.0498 20.9502C1.73705 19.6374 1 17.8565 1 16C1 14.6739 1.52716 13.4025 2.46484 12.4648C3.40253 11.5272 4.67392 11 6 11H6.00195C6.19955 11.0004 6.39303 10.9424 6.55762 10.833C6.72226 10.7235 6.85064 10.5672 6.92676 10.3848L7.30566 9.46777L7.30664 9.4668C7.60964 8.73674 8.12199 8.11284 8.7793 7.67383C9.43663 7.23481 10.2095 7.00022 11 7C12.2536 7 13.4652 7.39454 14.4736 8.11133L15.707 6.87891C15.894 6.69161 15.9998 6.43655 16 6.17188V4.82715C16.0003 4.03179 16.3164 3.26838 16.8789 2.70605L17.9932 1.59277L18 1.58496C18.3738 1.21878 18.8771 1.01367 19.4004 1.01367ZM11 9C10.6049 9.00016 10.2182 9.11746 9.88965 9.33691C9.56183 9.55594 9.3049 9.86656 9.15332 10.2305L9.1543 10.2314L8.77441 11.1514L8.77246 11.1553C8.54409 11.7025 8.15884 12.1697 7.66504 12.498C7.1717 12.8261 6.5924 12.9998 6 12.999C5.20435 12.999 4.44152 13.3163 3.87891 13.8789C3.3163 14.4415 3 15.2044 3 16C3 17.3261 3.52716 18.5975 4.46484 19.5352C5.40253 20.4728 6.67392 21 8 21C8.79565 21 9.55848 20.6837 10.1211 20.1211C10.6837 19.5585 11 18.7957 11 18C10.9992 17.4076 11.1739 16.8283 11.502 16.335C11.8303 15.8412 12.2975 15.4559 12.8447 15.2275L12.8486 15.2256L13.7686 14.8457C14.1327 14.6941 14.444 14.4383 14.6631 14.1104C14.8551 13.8228 14.9686 13.4907 14.9941 13.1475L15 13C15 12.2792 14.8044 11.5791 14.4443 10.9688L12.6074 12.8066C12.217 13.1971 11.5839 13.197 11.1934 12.8066C10.803 12.4161 10.8029 11.783 11.1934 11.3926L13.0303 9.55469C12.4202 9.19502 11.7203 9 11 9ZM18.293 4.12109C18.1057 4.30845 18.0002 4.5632 18 4.82812V6H19.1719L19.2705 5.99414C19.4994 5.97137 19.7148 5.87017 19.8789 5.70605L20.9854 4.59863L19.3994 3.01367L18.293 4.12109Z" fill="#1D2735"/>
</svg>
