<svg width="24" height="24" viewBox="0 0 24 24" fill="none" xmlns="http://www.w3.org/2000/svg">
<path d="M11.9997 14.7273C12.5018 14.7273 12.9088 15.1343 12.9088 15.6364V17.4545C12.9088 17.9566 12.5018 18.3636 11.9997 18.3636C11.4977 18.3635 11.0906 17.9565 11.0906 17.4545V16.4221C10.8195 16.2647 10.6361 15.9725 10.6361 15.6364C10.6361 15.1344 11.0432 14.7275 11.5452 14.7273H11.9997Z" fill="#1D2735"/>
<path fill-rule="evenodd" clip-rule="evenodd" d="M17.4543 2C17.8331 2.00002 18.2075 2.07945 18.5534 2.23171C18.6112 2.25188 18.6675 2.27889 18.722 2.31161C18.7253 2.31357 18.7285 2.31583 18.7318 2.31783C19.0395 2.48099 19.3135 2.70125 19.5379 2.9668L19.6365 3.09109L19.6374 3.09197L21.0897 5.03534C21.4113 5.46128 21.6009 5.97203 21.6348 6.50462C21.6688 7.03789 21.5453 7.56967 21.2797 8.03338L21.2779 8.03693L17.2359 15.0185C17.377 15.5032 17.4543 16.0152 17.4543 16.5455C17.4543 19.5579 15.0122 22 11.9997 22C8.98738 21.9998 6.54517 19.5578 6.54517 16.5455C6.54517 16.0153 6.62248 15.5031 6.76357 15.0185L2.72238 8.03693C2.45494 7.57462 2.32874 7.044 2.36016 6.51083C2.39168 5.9775 2.57979 5.46483 2.89994 5.03711L2.90082 5.03534L4.36478 3.0902C4.60386 2.77173 4.90985 2.50975 5.26055 2.32226C5.26616 2.31873 5.27171 2.31505 5.27742 2.31161C5.33189 2.27893 5.3884 2.25187 5.4461 2.23171C5.79199 2.07936 6.16625 2.00005 6.54517 2H17.4543ZM11.9997 12.9091C9.99154 12.9093 8.36335 14.5373 8.36335 16.5455C8.36335 18.5536 9.99154 20.1816 11.9997 20.1818C14.008 20.1818 15.6361 18.5537 15.6361 16.5455C15.6361 14.5372 14.008 12.9091 11.9997 12.9091ZM14.2281 11.5667C15.0145 11.9193 15.7018 12.4521 16.238 13.1133L19.7039 7.12606C19.791 6.97238 19.8315 6.79636 19.8202 6.62003C19.8088 6.44243 19.7455 6.27195 19.6382 6.12997L19.6355 6.12642L18.4468 4.5364L14.2281 11.5667ZM4.35413 6.1282C4.24819 6.27036 4.18621 6.44036 4.17568 6.61736C4.16518 6.79505 4.20734 6.97197 4.29642 7.12606L7.76144 13.1124C8.29729 12.4516 8.98466 11.9192 9.7705 11.5667L5.55175 4.53551L4.35413 6.1282ZM11.6145 11.106C11.7417 11.0971 11.8702 11.0909 11.9997 11.0909C12.1289 11.0909 12.2572 11.0972 12.3841 11.106L14.0301 8.36364H9.96936L11.6145 11.106ZM8.87827 6.54545H15.1212L16.7574 3.81818H7.24209L8.87827 6.54545Z" fill="#1D2735"/>
</svg>
