<svg width="24" height="24" viewBox="0 0 24 24" fill="none" xmlns="http://www.w3.org/2000/svg">
<path fill-rule="evenodd" clip-rule="evenodd" d="M16.5455 2C17.0276 2 17.49 2.19169 17.831 2.53267C18.1719 2.87365 18.3636 3.33597 18.3636 3.81818V8.36364H19.2727C19.9961 8.36364 20.6895 8.65118 21.201 9.16265C21.7125 9.6741 22 10.3675 22 11.0909V12.9091C22 13.4112 21.593 13.8182 21.0909 13.8182C20.5888 13.8182 20.1818 13.4112 20.1818 12.9091V11.0909C20.1818 10.8498 20.086 10.6186 19.9155 10.4482C19.745 10.2776 19.5138 10.1818 19.2727 10.1818H4.72727C4.48616 10.1818 4.25501 10.2776 4.08452 10.4482C3.91403 10.6186 3.81818 10.8498 3.81818 11.0909V15.6364C3.81818 15.8775 3.91403 16.1086 4.08452 16.2791C4.25501 16.4496 4.48616 16.5455 4.72727 16.5455H5.63636V14.7273C5.63636 14.2451 5.82806 13.7827 6.16904 13.4417C6.51001 13.1008 6.97234 12.9091 7.45455 12.9091H16.5455C17.0276 12.9091 17.49 13.1008 17.831 13.4417C18.1719 13.7827 18.3636 14.2451 18.3636 14.7273V15.1818C18.3636 15.6839 17.9566 16.0909 17.4545 16.0909C16.9525 16.0909 16.5455 15.6839 16.5455 15.1818V14.7273H7.45455V20.1818H13.3636C13.8657 20.1818 14.2727 20.5888 14.2727 21.0909C14.2727 21.593 13.8657 22 13.3636 22H7.45455C6.97234 22 6.51001 21.8083 6.16904 21.4674C5.82806 21.1264 5.63636 20.664 5.63636 20.1818V18.3636H4.72727C4.00395 18.3636 3.31046 18.0761 2.79901 17.5646C2.28755 17.0532 2 16.3596 2 15.6364V11.0909C2 10.3676 2.28755 9.6741 2.79901 9.16265C3.31046 8.65118 4.00395 8.36364 4.72727 8.36364H5.63636V3.81818C5.63636 3.33597 5.82806 2.87365 6.16904 2.53267C6.51001 2.19169 6.97234 2 7.45455 2H16.5455ZM7.45455 8.36364H16.5455V3.81818H7.45455V8.36364Z" fill="#1D2735"/>
<path d="M20.4482 15.9027C20.8032 15.5476 21.3786 15.5476 21.7336 15.9027C22.0886 16.2577 22.0887 16.8332 21.7336 17.1882L18.0973 20.8245C17.7423 21.1796 17.1668 21.1795 16.8118 20.8245L14.9936 19.0064C14.6385 18.6514 14.6385 18.0759 14.9936 17.7209C15.3486 17.3658 15.9241 17.3658 16.2791 17.7209L17.4545 18.8963L20.4482 15.9027Z" fill="#1D2735"/>
</svg>
