<svg width="24" height="24" viewBox="0 0 24 24" fill="none" xmlns="http://www.w3.org/2000/svg">
<path d="M12 19C12.5523 19 13 19.4477 13 20V22C13 22.5523 12.5523 23 12 23C11.4477 23 11 22.5523 11 22V20C11 19.4477 11.4477 19 12 19Z" fill="#1D2735"/>
<path d="M5.63281 16.9531C6.02331 16.5627 6.65637 16.5627 7.04688 16.9531C7.4373 17.3436 7.4373 17.9767 7.04688 18.3672L5.63672 19.7773C5.2462 20.1676 4.61309 20.1677 4.22266 19.7773C3.83233 19.3869 3.83246 18.7538 4.22266 18.3633L5.63281 16.9531Z" fill="#1D2735"/>
<path d="M16.9531 16.9531C17.3436 16.5626 17.9767 16.5626 18.3672 16.9531L19.7773 18.3633C20.1675 18.7538 20.1678 19.3869 19.7773 19.7773C19.3869 20.1677 18.7538 20.1675 18.3633 19.7773L16.9531 18.3672C16.5626 17.9767 16.5626 17.3437 16.9531 16.9531Z" fill="#1D2735"/>
<path fill-rule="evenodd" clip-rule="evenodd" d="M12 7C14.7614 7 17 9.23858 17 12C17 14.7614 14.7614 17 12 17C9.23858 17 7 14.7614 7 12C7 9.23858 9.23858 7 12 7ZM12 9C10.3431 9 9 10.3431 9 12C9 13.6569 10.3431 15 12 15C13.6569 15 15 13.6569 15 12C15 10.3431 13.6569 9 12 9Z" fill="#1D2735"/>
<path d="M4 11C4.55228 11 5 11.4477 5 12C5 12.5523 4.55228 13 4 13H2C1.44772 13 1 12.5523 1 12C1 11.4477 1.44772 11 2 11H4Z" fill="#1D2735"/>
<path d="M22 11C22.5523 11 23 11.4477 23 12C23 12.5523 22.5523 13 22 13H20C19.4477 13 19 12.5523 19 12C19 11.4477 19.4477 11 20 11H22Z" fill="#1D2735"/>
<path d="M4.22266 4.22266C4.61308 3.83223 5.24617 3.83242 5.63672 4.22266L7.04688 5.63281C7.43724 6.02335 7.43735 6.6564 7.04688 7.04688C6.6564 7.43735 6.02335 7.43724 5.63281 7.04688L4.22266 5.63672C3.83242 5.24617 3.83223 4.61308 4.22266 4.22266Z" fill="#1D2735"/>
<path d="M18.3633 4.22266C18.7538 3.83244 19.3869 3.83227 19.7773 4.22266C20.1677 4.61309 20.1676 5.2462 19.7773 5.63672L18.3672 7.04688C17.9767 7.4373 17.3436 7.4373 16.9531 7.04688C16.5627 6.65637 16.5627 6.02333 16.9531 5.63281L18.3633 4.22266Z" fill="#1D2735"/>
<path d="M12 1C12.5523 1 13 1.44772 13 2V4C13 4.55228 12.5523 5 12 5C11.4477 5 11 4.55228 11 4V2C11 1.44772 11.4477 1 12 1Z" fill="#1D2735"/>
</svg>
